<svg width="25" height="20" viewBox="0 0 25 20" fill="none" xmlns="http://www.w3.org/2000/svg">
<path fill-rule="evenodd" clip-rule="evenodd" d="M9.02729 6.969H13.4841V8.819C14.1261 7.755 15.7725 6.799 18.2457 6.799C22.9869 6.799 24.1125 8.917 24.1125 12.803V20H19.3125V13.688C19.3125 11.475 18.6705 10.227 17.0361 10.227C14.7693 10.227 13.8273 11.572 13.8273 13.687V20H9.02729V6.969ZM0.796488 19.83H5.59649V6.799H0.796488V19.83ZM6.28409 2.55C6.28427 2.88528 6.20447 3.21724 6.04935 3.52659C5.89423 3.83594 5.66687 4.11651 5.38049 4.352C4.80017 4.83262 4.01466 5.10165 3.19649 5.1C2.37976 5.09954 1.59606 4.8312 1.01489 4.353C0.729541 4.11671 0.502951 3.83582 0.3481 3.52643C0.19325 3.21704 0.113183 2.88522 0.112488 2.55C0.112488 1.873 0.436488 1.225 1.01609 0.747C1.59675 0.268158 2.38078 -0.000299211 3.19769 2.50265e-07C4.01609 2.50265e-07 4.80089 0.269 5.38049 0.747C5.95889 1.225 6.28409 1.873 6.28409 2.55Z" fill="#96C67F"/>
</svg>
