<svg width="25" height="22" viewBox="0 0 25 22" fill="none" xmlns="http://www.w3.org/2000/svg">
<path fill-rule="evenodd" clip-rule="evenodd" d="M7.12585 0.066C8.40548 0.012 8.81348 0 12.0731 0C15.3328 0 15.7408 0.013 17.0193 0.066C18.2978 0.119 19.1706 0.306 19.9342 0.577C20.7338 0.854 21.4593 1.287 22.0593 1.847C22.6702 2.396 23.1415 3.06 23.4426 3.794C23.7393 4.494 23.9422 5.294 24.0011 6.464C24.06 7.639 24.0731 8.013 24.0731 11C24.0731 13.988 24.0589 14.362 24.0011 15.535C23.9433 16.705 23.7393 17.505 23.4426 18.205C23.1415 18.9391 22.6694 19.6042 22.0593 20.154C21.4593 20.714 20.7338 21.146 19.9342 21.422C19.1706 21.694 18.2978 21.88 17.0215 21.934C15.7408 21.988 15.3328 22 12.0731 22C8.81348 22 8.40548 21.987 7.12585 21.934C5.84948 21.881 4.97676 21.694 4.21312 21.422C3.41231 21.146 2.68674 20.7133 2.08694 20.154C1.47644 19.6047 1.00401 18.9399 0.702575 18.206C0.406938 17.506 0.204029 16.706 0.14512 15.536C0.086211 14.361 0.0731201 13.987 0.0731201 11C0.0731201 8.012 0.0873019 7.638 0.14512 6.466C0.202938 5.294 0.406938 4.494 0.702575 3.794C1.00445 3.06008 1.47725 2.39531 2.08803 1.846C2.68698 1.2865 3.41182 0.853443 4.21203 0.577C4.97567 0.306 5.84839 0.12 7.12476 0.066H7.12585ZM16.9222 2.046C15.6568 1.993 15.2771 1.982 12.0731 1.982C8.86912 1.982 8.48948 1.993 7.22403 2.046C6.05348 2.095 5.41857 2.274 4.9953 2.425C4.43567 2.625 4.0353 2.862 3.6153 3.247C3.21717 3.60205 2.91077 4.03428 2.71857 4.512C2.55385 4.9 2.35857 5.482 2.30512 6.555C2.2473 7.715 2.2353 8.063 2.2353 11C2.2353 13.937 2.2473 14.285 2.30512 15.445C2.35857 16.518 2.55385 17.1 2.71857 17.488C2.91057 17.965 3.21712 18.398 3.6153 18.753C4.00257 19.118 4.47494 19.399 4.9953 19.575C5.41857 19.726 6.05348 19.905 7.22403 19.954C8.48948 20.007 8.86803 20.018 12.0731 20.018C15.2782 20.018 15.6568 20.007 16.9222 19.954C18.0928 19.905 18.7277 19.726 19.1509 19.575C19.7106 19.375 20.1109 19.138 20.5309 18.753C20.9291 18.398 21.2357 17.965 21.4277 17.488C21.5924 17.1 21.7877 16.518 21.8411 15.445C21.8989 14.285 21.9109 13.937 21.9109 11C21.9109 8.063 21.8989 7.715 21.8411 6.555C21.7877 5.482 21.5924 4.9 21.4277 4.512C21.2095 3.999 20.9509 3.632 20.5309 3.247C20.1436 2.88207 19.6721 2.60121 19.1509 2.425C18.7277 2.274 18.0928 2.095 16.9222 2.046ZM10.5404 14.391C11.3964 14.7176 12.3495 14.7617 13.237 14.5157C14.1246 14.2697 14.8914 13.7489 15.4065 13.0422C15.9217 12.3356 16.1532 11.4869 16.0615 10.6411C15.9699 9.79534 15.5608 9.00497 14.904 8.405C14.4854 8.02148 13.9792 7.72781 13.4218 7.54515C12.8645 7.36248 12.27 7.29536 11.6809 7.34862C11.0919 7.40187 10.5231 7.57418 10.0155 7.85313C9.5078 8.13208 9.07393 8.51074 8.74509 8.96185C8.41624 9.41296 8.2006 9.92529 8.11368 10.462C8.02677 10.9986 8.07074 11.5463 8.24244 12.0655C8.41413 12.5847 8.70928 13.0626 9.10663 13.4647C9.50399 13.8668 9.99366 14.1832 10.5404 14.391ZM7.71167 7.002C8.28442 6.47697 8.96438 6.0605 9.71272 5.77636C10.4611 5.49222 11.2631 5.34597 12.0731 5.34597C12.8831 5.34597 13.6852 5.49222 14.4335 5.77636C15.1819 6.0605 15.8618 6.47697 16.4346 7.002C17.0073 7.52702 17.4617 8.15032 17.7716 8.8363C18.0816 9.52228 18.2411 10.2575 18.2411 11C18.2411 11.7425 18.0816 12.4777 17.7716 13.1637C17.4617 13.8497 17.0073 14.473 16.4346 14.998C15.2778 16.0583 13.709 16.654 12.0731 16.654C10.4373 16.654 8.8684 16.0583 7.71167 14.998C6.55494 13.9377 5.90509 12.4995 5.90509 11C5.90509 9.50046 6.55494 8.06234 7.71167 7.002ZM19.6091 6.188C19.7511 6.06527 19.8647 5.91768 19.9433 5.75397C20.0219 5.59027 20.0638 5.41377 20.0667 5.23493C20.0695 5.05609 20.0332 4.87855 19.9598 4.71281C19.8865 4.54707 19.7776 4.39651 19.6396 4.27004C19.5017 4.14357 19.3374 4.04376 19.1566 3.97652C18.9758 3.90928 18.7821 3.87598 18.587 3.87858C18.3919 3.88119 18.1994 3.91965 18.0208 3.9917C17.8422 4.06374 17.6812 4.1679 17.5473 4.298C17.2869 4.55103 17.1444 4.88712 17.1499 5.23493C17.1554 5.58274 17.3086 5.91488 17.5769 6.16084C17.8453 6.40681 18.2076 6.54723 18.587 6.5523C18.9664 6.55737 19.3331 6.42669 19.6091 6.188Z" fill="#96C67F"/>
</svg>
