<svg width="24" height="24" viewBox="0 0 24 24" fill="none" xmlns="http://www.w3.org/2000/svg">
<path fill-rule="evenodd" clip-rule="evenodd" d="M-6.10352e-05 12.067C-6.10352e-05 18.033 4.33294 22.994 9.99994 24V15.333H6.99994V12H9.99994V9.333C9.99994 6.333 11.9329 4.667 14.6669 4.667C15.5329 4.667 16.4669 4.8 17.3329 4.933V8H15.7999C14.3329 8 13.9999 8.733 13.9999 9.667V12H17.1999L16.6669 15.333H13.9999V24C19.6669 22.994 23.9999 18.034 23.9999 12.067C23.9999 5.43 18.5999 0 11.9999 0C5.39994 0 -6.10352e-05 5.43 -6.10352e-05 12.067Z" fill="#96C67F"/>
</svg>
