<svg width="25" height="25" viewBox="0 0 25 25" fill="none" xmlns="http://www.w3.org/2000/svg">
<path d="M12.128 0C5.50121 0 0.127991 5.40236 0.127991 12.0651C0.127991 18.7278 5.50121 24.1302 12.128 24.1302C18.7548 24.1302 24.128 18.7278 24.128 12.0651C24.128 5.40236 18.7548 0 12.128 0ZM17.895 9.09461C17.903 9.22118 17.903 9.35314 17.903 9.48241C17.903 13.4359 14.9083 17.9899 9.43603 17.9899C7.74853 17.9899 6.18424 17.4971 4.86638 16.6488C5.10745 16.6757 5.33781 16.6865 5.58424 16.6865C6.9771 16.6865 8.25745 16.2125 9.27799 15.4099C7.97085 15.383 6.87263 14.5212 6.49763 13.3362C6.95567 13.4036 7.36817 13.4036 7.8396 13.2824C7.16654 13.1449 6.56158 12.7774 6.1275 12.2423C5.69341 11.7071 5.45697 11.0374 5.45835 10.3469V10.3092C5.8521 10.5327 6.31549 10.6701 6.80031 10.6889C6.39275 10.4158 6.0585 10.0458 5.82722 9.61176C5.59593 9.17768 5.47475 8.69293 5.47442 8.20049C5.47442 7.64302 5.61906 7.13403 5.87888 6.69236C6.62594 7.617 7.55816 8.37324 8.61495 8.91192C9.67174 9.4506 10.8294 9.75968 12.0128 9.81905C11.5923 7.78576 13.103 6.14027 14.9191 6.14027C15.7762 6.14027 16.5476 6.50115 17.0914 7.08286C17.7637 6.95628 18.4066 6.70313 18.9798 6.3638C18.7575 7.05593 18.2914 7.64033 17.6726 8.00928C18.2726 7.94465 18.8512 7.77768 19.3869 7.54338C18.9825 8.14125 18.4762 8.67179 17.895 9.09461Z" fill="#96C67F"/>
</svg>
